<?xml version="1.0" encoding="utf-8"?>
<!-- Generator: Adobe Illustrator 14.0.0, SVG Export Plug-In . SVG Version: 6.00 Build 43363)  -->
<!DOCTYPE svg PUBLIC "-//W3C//DTD SVG 1.1//EN" "http://www.w3.org/Graphics/SVG/1.1/DTD/svg11.dtd">
<svg version="1.1" id="Layer_1" xmlns="http://www.w3.org/2000/svg" xmlns:xlink="http://www.w3.org/1999/xlink" x="0px" y="0px"
	 width="200px" height="200px" viewBox="0 0 200 200" enable-background="new 0 0 200 200" xml:space="preserve">
<path fill="#ED1C24" d="M61.192,86.928l26.924,0.026l-0.977,4.935H74.874l-0.953,4.86l12.167-0.022l-0.955,4.884l-12.213-0.023
	l-1.002,4.936c-0.358,1.63,0.358,2.467,2.15,2.516l9.577-0.049l-0.903,4.765H68.107c-4.936,0.015-7.086-1.59-6.451-4.814
	l1.492-7.353h-4.814l0.953-4.861l4.887-0.025l1-4.959l-4.91,0.023L61.192,86.928z M96.804,108.918h7.29l3.468-17.029h-7.328
	L96.804,108.918z M91.499,87.13h9.773l-0.501,2.216l3.006-2.466l7.28-0.025c4.836-0.016,6.921,1.662,6.254,5.033l-3.396,17.051
	c-0.619,3.225-3.371,4.837-8.257,4.837h-9.832l-9.698,0.025l0.964-4.781l-0.015-0.104L91.499,87.13z M120.035,86.905l24.457-0.024
	l-0.978,4.959l-16.345,17.053h12.996l-0.953,4.91l-24.503-0.048l0.978-4.837l7.037-7.32l-2.79-0.01l0.954-4.861h6.518l4.723-4.912
	l-13.047-0.05L120.035,86.905z M147.502,84.438h9.895l-0.488,2.394l9.673,0.025c4.79,0.017,6.851,1.654,6.181,4.91l-4.395,21.965
	l-9.8,3.686l1.907-11.017l-5.129,0.026l1-4.959l5.08-0.026l1.956-9.748l-7.477-0.025l-3.638,18.129l-10.289,3.709L147.502,84.438z
	 M69.583,74.867h4.725l-1.931,9.355l-4.691,0.01L69.583,74.867z M76.973,74.867h4.726l-1.932,9.355l-4.69,0.01L76.973,74.867z
	 M46.067,101.6l-5.14-0.018l0.953-4.863h5.189l9.7-0.024l-3.435,16.81h-9.774l0.5-2.217l-3.003,2.468l-7.281,0.022
	c-4.837,0.018-6.921-1.66-6.253-5.031l3.394-17.053c0.62-3.225,3.372-4.837,8.259-4.837h14.656c2.933,0.108,3.53,2.009,3.925,4.862
	H40.739l-3.469,17.028h7.329L46.067,101.6z"/>
<g>
	<path fill="#7A7B7B" d="M53.441,123.572l-0.054,1.611h-0.992v-0.865h-3.211v0.865h-0.992l-0.054-1.611h0.469
		c0.55-0.664,0.72-1.388,0.72-2.205v-0.888h3.442v3.093H53.441z M50.378,121.225l-0.007,0.455c-0.021,0.855-0.149,1.41-0.55,1.893
		h1.827v-2.348H50.378z"/>
	<path fill="#7A7B7B" d="M54.015,122.398c0-0.894,0.529-2.029,2.403-2.029c1.637,0,2.404,0.867,2.404,2.029
		s-0.767,2.029-2.404,2.029C54.544,124.428,54.015,123.293,54.015,122.398z M57.613,122.398c0-0.352-0.054-1.283-1.195-1.283
		c-0.618,0-1.188,0.269-1.188,1.283c0,1.004,0.57,1.283,1.188,1.283C57.559,123.682,57.613,122.723,57.613,122.398z"/>
	<path fill="#7A7B7B" d="M64.094,122.963c-0.075,0.576-0.476,1.465-2.16,1.465c-1.215,0-2.329-0.449-2.329-1.958
		c0-2.023,1.827-2.101,2.288-2.101c1.691,0,2.112,0.85,2.146,1.415h-1.1c-0.109-0.642-0.734-0.669-0.992-0.669
		c-0.251,0-1.134,0.039-1.134,1.322c0,0.724,0.407,1.244,1.168,1.244c0.74,0,0.944-0.434,0.998-0.719H64.094z"/>
	<path fill="#7A7B7B" d="M64.565,121.225v-0.745h3.992v0.745h-1.433v3.094h-1.12v-3.094H64.565z"/>
	<path fill="#7A7B7B" d="M71.698,120.479l1.786,3.839h-1.188L71.99,123.6h-1.725l-0.299,0.719h-1.181l1.779-3.839H71.698z
		 M71.745,122.947l-0.611-1.465l-0.625,1.465H71.745z"/>
	<path fill="#7A7B7B" d="M76.501,120.479c1.242,0,1.467,0.56,1.467,0.976c0,0.444-0.319,0.675-0.781,0.801v0.006
		c0.367,0.061,1.012,0.279,1.012,0.981c0,0.921-0.978,1.075-1.82,1.075h-2.261v-3.839H76.501z M75.238,121.992h1.032
		c0.455,0,0.557-0.246,0.557-0.395c0-0.158-0.108-0.373-0.604-0.373h-0.984V121.992z M75.238,123.572h1.161
		c0.197,0,0.618-0.082,0.618-0.434c0-0.367-0.353-0.438-0.76-0.438h-1.019V123.572z"/>
	<path fill="#7A7B7B" d="M82.011,120.479h1.317l-1.908,1.755l2.016,2.084h-1.371l-1.684-1.876h-0.014v1.876h-1.121v-3.839h1.121
		v1.611h0.014L82.011,120.479z"/>
	<path fill="#7A7B7B" d="M86.413,120.479l1.786,3.839h-1.188l-0.306-0.719H84.98l-0.298,0.719H83.5l1.779-3.839H86.413z
		 M86.46,122.947l-0.611-1.465l-0.625,1.465H86.46z"/>
	<path fill="#7A7B7B" d="M93.621,120.479h1.12v3.839h-1.12v-2.507l-1.895,2.507h-1.121v-3.839h1.121v2.478L93.621,120.479z"/>
	<path fill="#7A7B7B" d="M96.795,122.996c0.021,0.395,0.306,0.686,1.121,0.686c0.794,0,0.964-0.291,0.964-0.504
		c0-0.439-0.543-0.467-0.815-0.467h-0.672v-0.707h0.557c0.319,0,0.781-0.05,0.781-0.428c0-0.467-0.767-0.461-0.923-0.461
		c-0.244,0-0.835,0.011-0.869,0.609h-1.093c0.074-1.037,0.869-1.355,2.084-1.355c1.066,0,2.01,0.27,2.01,1.081
		c0,0.608-0.563,0.8-0.903,0.845v0.01c0.679,0.111,1.053,0.379,1.053,0.971c0,0.977-1.175,1.152-2.207,1.152
		c-0.971,0-2.098-0.176-2.173-1.432H96.795z"/>
	<path fill="#7A7B7B" d="M105.123,120.479c0.957,0,1.793,0.29,1.793,1.239c0,1.206-1.242,1.277-1.82,1.277h-1.065v1.322h-1.12
		v-3.839H105.123z M104.03,122.25h0.876c0.536,0,0.801-0.153,0.801-0.525c0-0.521-0.55-0.5-0.801-0.5h-0.876V122.25z"/>
	<path fill="#7A7B7B" d="M111.251,122.004v0.707h-2.322v0.861h2.702v0.746h-3.822v-3.839h3.755v0.745h-2.635v0.779H111.251z"/>
	<path fill="#7A7B7B" d="M116.761,122.963c-0.075,0.576-0.476,1.465-2.159,1.465c-1.216,0-2.33-0.449-2.33-1.958
		c0-2.023,1.827-2.101,2.289-2.101c1.69,0,2.111,0.85,2.146,1.415h-1.101c-0.107-0.642-0.732-0.669-0.99-0.669
		c-0.252,0-1.135,0.039-1.135,1.322c0,0.724,0.408,1.244,1.168,1.244c0.74,0,0.943-0.434,0.998-0.719H116.761z"/>
	<path fill="#7A7B7B" d="M117.231,121.225v-0.745h3.993v0.745h-1.434v3.094h-1.12v-3.094H117.231z"/>
	<path fill="#7A7B7B" d="M121.797,122.398c0-0.894,0.529-2.029,2.404-2.029c1.637,0,2.403,0.867,2.403,2.029
		s-0.767,2.029-2.403,2.029C122.326,124.428,121.797,123.293,121.797,122.398z M125.396,122.398c0-0.352-0.055-1.283-1.195-1.283
		c-0.619,0-1.188,0.269-1.188,1.283c0,1.004,0.569,1.283,1.188,1.283C125.342,123.682,125.396,122.723,125.396,122.398z"/>
	<path fill="#7A7B7B" d="M129.826,120.479c0.957,0,1.793,0.29,1.793,1.239c0,1.206-1.242,1.277-1.82,1.277h-1.066v1.322h-1.12
		v-3.839H129.826z M128.732,122.25h0.877c0.536,0,0.801-0.153,0.801-0.525c0-0.521-0.551-0.5-0.801-0.5h-0.877V122.25z"/>
	<path fill="#7A7B7B" d="M134.854,120.479l1.785,3.839h-1.188l-0.306-0.719h-1.726l-0.298,0.719h-1.182l1.778-3.839H134.854z
		 M134.9,122.947l-0.611-1.465l-0.624,1.465H134.9z"/>
	<path fill="#7A7B7B" d="M138.394,124.318h-1.12v-3.839h1.12v1.442h1.725v-1.442h1.12v3.839h-1.12v-1.651h-1.725V124.318z"/>
	<path fill="#7A7B7B" d="M142.254,122.398c0-0.894,0.529-2.029,2.402-2.029c1.637,0,2.404,0.867,2.404,2.029
		s-0.768,2.029-2.404,2.029C142.783,124.428,142.254,123.293,142.254,122.398z M145.852,122.398c0-0.352-0.054-1.283-1.195-1.283
		c-0.617,0-1.188,0.269-1.188,1.283c0,1.004,0.57,1.283,1.188,1.283C145.798,123.682,145.852,122.723,145.852,122.398z"/>
	<path fill="#7A7B7B" d="M150.452,120.479c1.243,0,1.467,0.56,1.467,0.976c0,0.444-0.319,0.675-0.78,0.801v0.006
		c0.366,0.061,1.012,0.279,1.012,0.981c0,0.921-0.979,1.075-1.82,1.075h-2.262v-3.839H150.452z M149.189,121.992h1.031
		c0.455,0,0.558-0.246,0.558-0.395c0-0.158-0.108-0.373-0.604-0.373h-0.984V121.992z M149.189,123.572h1.16
		c0.197,0,0.619-0.082,0.619-0.434c0-0.367-0.354-0.438-0.762-0.438h-1.018V123.572z"/>
</g>
</svg>
